<svg width="512" height="512" viewBox="0 0 512 512" fill="none" xmlns="http://www.w3.org/2000/svg">
<path d="M0 512V256V0H512V512H0Z" fill="#00325A"/>
<path d="M142 142L168.8 126.6L195.5 111.2L316.5 111L371 142L370.5 349.5L318 379.7C289.1 396.3 263.5 411.1 256.5 414.9L142.5 349.5L142 142Z" fill="white"/>
<path d="M156.5 149.8L178 137.4L199.5 125H313.5L356.5 149.8L357 341.5L307.3 370C279.9 385.7 257.1 398.5 256.5 398.5C255.9 398.5 233.1 385.7 156 341.5L156.5 149.8Z" fill="#00325A"/>
<path d="M213.3 151C213.1 145.3 213.2 140 213.5 139.3C213.9 138.2 221.9 138 299.5 138.5L300 161L278 180L278.5 192.5L323 193V214.5L305.3 224.7C289.6 233.8 286.9 235 278 235V278.5C278 302.4 278.3 322 278.8 321.9C279.2 321.9 284.7 318.8 302.5 308.4L303 259.5L322.5 248.2C333.2 242.1 342.4 237 343 237C343.7 237 343.9 253.6 343.5 333.4L300.5 358.2C276.9 371.8 257.1 383 256.5 383C255.9 383 236.2 371.8 169.5 333.4L169.3 285.2C169.1 253.6 169.3 237 170 237C170.6 237 179.8 242.1 210 259.5L210.5 308.3L217.5 312.4C221.3 314.7 226.6 317.8 234 322V235H229.8C226.2 235 222.6 233.4 190 214.5V193H234V179L213.5 161.4L213.3 151Z" fill="white"/>
</svg>
